/* XPM */
static char *magick[] = {
/* columns rows colors chars-per-pixel */
"9 20 2 1",
"  c #000000000000",
". c None",
/* pixels */
".........",
".........",
".........",
".........",
".........",
".........",
".........",
".     ...",
". .... ..",
". ..... .",
". ..... .",
". ..... .",
". ..... .",
". ..... .",
". ..... .",
". ..... .",
".........",
".........",
".........",
"........."
};
